<svg width="393" height="125" viewBox="415 139 393 125" fill="none" xmlns="http://www.w3.org/2000/svg">
<path d="M610 170V177" stroke="#D34516" stroke-linecap="round"/>
<path d="M446.054 231.774C445.929 232.02 446.027 232.321 446.274 232.446C446.52 232.571 446.821 232.473 446.946 232.226L446.5 232L446.054 231.774ZM478 170L478.444 169.771C478.358 169.604 478.186 169.499 477.998 169.5C477.811 169.501 477.639 169.606 477.554 169.774L478 170ZM510 232L509.556 232.229C509.661 232.434 509.894 232.54 510.118 232.486C510.342 232.431 510.5 232.231 510.5 232H510ZM510 171L510.387 170.683C510.253 170.52 510.031 170.458 509.832 170.529C509.633 170.6 509.5 170.789 509.5 171H510ZM560 232L559.613 232.317C559.747 232.48 559.969 232.542 560.168 232.471C560.367 232.4 560.5 232.211 560.5 232H560ZM560 170L560.387 169.683C560.253 169.52 560.031 169.458 559.832 169.529C559.633 169.6 559.5 169.789 559.5 170H560ZM610 231L609.613 231.317C609.747 231.48 609.969 231.542 610.168 231.471C610.367 231.4 610.5 231.211 610.5 231H610ZM446.5 232L446.946 232.226L478.446 170.226L478 170L477.554 169.774L446.054 231.774L446.5 232ZM478 170L477.556 170.229L509.556 232.229L510 232L510.444 231.771L478.444 169.771L478 170ZM510 232H510.5V171H510H509.5V232H510ZM510 171L509.613 171.317L559.613 232.317L560 232L560.387 231.683L510.387 170.683L510 171ZM560 232H560.5V170H560H559.5V232H560ZM560 170L559.613 170.317L609.613 231.317L610 231L610.387 230.683L560.387 169.683L560 170ZM610 231H610.5V170H610H609.5V231H610ZM463 200V200.5H493V200V199.5H463V200Z" fill="#D34516"/>
<path d="M617 170H667M667 170V200.5M667 170L696.5 230.5L697.077 231.5L726.5 169.5V231.5H777M617 231H667V200.5M667 200.5H617M681.5 199H712.5" stroke="#386EE0" stroke-miterlimit="14.3356" stroke-linecap="round" stroke-linejoin="round"/>
<path d="M726.5 231.5H777" stroke="#D34516" stroke-linecap="round"/>
<path d="M726.5 231V169.5" stroke="#D34516" stroke-linecap="round"/>
<path d="M468.4 200H493.4" stroke="#D34516" stroke-linecap="round"/>
</svg>
