<svg width="394" height="125" viewBox="414 138 394 125" fill="none" xmlns="http://www.w3.org/2000/svg">
<path d="M610 170V177" stroke="#D34516" stroke-width="2" stroke-linecap="round"/>
<path d="M445.608 231.547C445.358 232.039 445.555 232.641 446.047 232.892C446.539 233.142 447.141 232.945 447.392 232.453L446.5 232L445.608 231.547ZM478 170L478.889 169.541C478.716 169.208 478.372 168.999 477.997 169C477.622 169.001 477.278 169.212 477.108 169.547L478 170ZM510 232L509.111 232.459C509.323 232.869 509.788 233.081 510.236 232.972C510.684 232.863 511 232.461 511 232H510ZM510 171L510.773 170.366C510.506 170.039 510.061 169.916 509.663 170.058C509.266 170.201 509 170.577 509 171H510ZM560 232L559.227 232.634C559.494 232.961 559.939 233.084 560.337 232.942C560.734 232.799 561 232.423 561 232H560ZM560 170L560.773 169.366C560.506 169.039 560.061 168.916 559.663 169.058C559.266 169.201 559 169.577 559 170H560ZM610 231L609.227 231.634C609.494 231.961 609.939 232.084 610.337 231.942C610.734 231.799 611 231.423 611 231H610ZM446.5 232L447.392 232.453L478.892 170.453L478 170L477.108 169.547L445.608 231.547L446.5 232ZM478 170L477.111 170.459L509.111 232.459L510 232L510.889 231.541L478.889 169.541L478 170ZM510 232H511V171H510H509V232H510ZM510 171L509.227 171.634L559.227 232.634L560 232L560.773 231.366L510.773 170.366L510 171ZM560 232H561V170H560H559V232H560ZM560 170L559.227 170.634L609.227 231.634L610 231L610.773 230.366L560.773 169.366L560 170ZM610 231H611V170H610H609V231H610ZM463 200V201H493V200V199H463V200Z" fill="#D34516"/>
<path d="M617 170H667M667 170V200.5M667 170L696.5 230.5L697.077 231.5L726.5 169.5V231.5H777M617 231H667V200.5M667 200.5H617M681.5 199H712.5" stroke="#386EE0" stroke-width="2" stroke-miterlimit="14.3356" stroke-linecap="round" stroke-linejoin="round"/>
<path d="M726.5 231.5H777" stroke="#D34516" stroke-width="2" stroke-linecap="round"/>
<path d="M726.5 231V169.5" stroke="#D34516" stroke-width="2" stroke-linecap="round"/>
<path d="M468.4 200H493.4" stroke="#D34516" stroke-linecap="round"/>
</svg>
