<svg width="397" height="124" viewBox="1289 139 397 124" fill="none" xmlns="http://www.w3.org/2000/svg">

<path d="M1320.05 231.774C1319.93 232.02 1320.03 232.321 1320.27 232.446C1320.52 232.571 1320.82 232.473 1320.95 232.226L1320.5 232L1320.05 231.774ZM1352 170L1352.44 169.771C1352.36 169.604 1352.19 169.499 1352 169.5C1351.81 169.501 1351.64 169.606 1351.55 169.774L1352 170ZM1384 232L1383.56 232.229C1383.66 232.434 1383.89 232.54 1384.12 232.486C1384.34 232.431 1384.5 232.231 1384.5 232H1384ZM1384 171L1384.39 170.683C1384.25 170.52 1384.03 170.458 1383.83 170.529C1383.63 170.6 1383.5 170.789 1383.5 171H1384ZM1434 232L1433.61 232.317C1433.75 232.48 1433.97 232.542 1434.17 232.471C1434.37 232.4 1434.5 232.211 1434.5 232H1434ZM1434 170L1434.39 169.683C1434.25 169.52 1434.03 169.458 1433.83 169.529C1433.63 169.6 1433.5 169.789 1433.5 170H1434ZM1484 231L1483.61 231.317C1483.75 231.48 1483.97 231.542 1484.17 231.471C1484.37 231.4 1484.5 231.211 1484.5 231H1484ZM1320.5 232L1320.95 232.226L1352.45 170.226L1352 170L1351.55 169.774L1320.05 231.774L1320.5 232ZM1352 170L1351.56 170.229L1383.56 232.229L1384 232L1384.44 231.771L1352.44 169.771L1352 170ZM1384 232H1384.5V171H1384H1383.5V232H1384ZM1384 171L1383.61 171.317L1433.61 232.317L1434 232L1434.39 231.683L1384.39 170.683L1384 171ZM1434 232H1434.5V170H1434H1433.5V232H1434ZM1434 170L1433.61 170.317L1483.61 231.317L1484 231L1484.39 230.683L1434.39 169.683L1434 170ZM1484 231H1484.5V170H1484H1483.5V231H1484ZM1337 200V200.5H1367V200V199.5H1337V200Z" fill="#D34516"/>
<path d="M1494 170.5H1544M1544 170.5V201M1544 170.5L1573.5 231L1574.08 232L1603.5 170M1494 231.5H1544V201M1544 201H1494M1558.5 199.5H1589.5" stroke="#386EE0" stroke-miterlimit="14.3356" stroke-linecap="round" stroke-linejoin="round"/>
<path d="M1603.5 170V231H1654.5" stroke="#D34516" stroke-miterlimit="14.3356" stroke-linecap="round"/>

</svg>
